<?xml version="1.0" encoding="UTF-8" standalone="no"?>
<svg
   xmlns:dc="http://purl.org/dc/elements/1.1/"
   xmlns:cc="http://creativecommons.org/ns#"
   xmlns:rdf="http://www.w3.org/1999/02/22-rdf-syntax-ns#"
   xmlns:svg="http://www.w3.org/2000/svg"
   xmlns="http://www.w3.org/2000/svg"
   xmlns:sodipodi="http://sodipodi.sourceforge.net/DTD/sodipodi-0.dtd"
   xmlns:inkscape="http://www.inkscape.org/namespaces/inkscape"
   version="1.1"
   id="svg2"
   xml:space="preserve"
   width="433.33334"
   height="346.66666"
   viewBox="0 0 433.33334 346.66666"
   sodipodi:docname="1221720943-vector.eps"><metadata
     id="metadata8"><rdf:RDF><cc:Work
         rdf:about=""><dc:format>image/svg+xml</dc:format><dc:type
           rdf:resource="http://purl.org/dc/dcmitype/StillImage" /></cc:Work></rdf:RDF></metadata><defs
     id="defs6" /><sodipodi:namedview
     pagecolor="#ffffff"
     bordercolor="#666666"
     borderopacity="1"
     objecttolerance="10"
     gridtolerance="10"
     guidetolerance="10"
     inkscape:pageopacity="0"
     inkscape:pageshadow="2"
     inkscape:window-width="640"
     inkscape:window-height="480"
     id="namedview4" /><g
     id="g10"
     inkscape:groupmode="layer"
     inkscape:label="ink_ext_XXXXXX"
     transform="matrix(1.3333333,0,0,-1.3333333,0,346.66667)"><g
       id="g12"
       transform="scale(0.1)"><path
         d="M 3250,0 H 0 V 2600 H 3250 V 0"
         style="fill:#231f20;fill-opacity:1;fill-rule:nonzero;stroke:none"
         id="path14" /><path
         d="m 740.547,1784.61 c -117.305,0 -215.684,-37.54 -292.41,-111.6 -75.242,-72.62 -113.387,-165.43 -113.387,-275.82 0,-118.22 37.73,-215.46 112.148,-289.07 76.094,-75.27 176.61,-113.44 298.727,-113.44 35.813,0 76.301,5.91 120.355,17.56 l 25.028,6.61 v 228.07 l -48.035,-13.72 c -32.422,-9.25 -60.473,-13.95 -83.371,-13.95 -43.844,0 -77.922,13.91 -104.188,42.55 -28.269,30.8 -42.605,74.61 -42.605,130.19 0,51.29 14.371,93.58 42.703,125.71 26.051,29.54 57.191,43.9 95.195,43.9 28.566,0 59.766,-4.56 92.738,-13.56 l 47.563,-12.99 v 228.11 l -25.211,6.55 c -38.102,9.89 -80.234,14.9 -125.25,14.9"
         style="fill:#ffffff;fill-opacity:1;fill-rule:nonzero;stroke:none"
         id="path16" /><path
         d="m 1411.69,1412.91 c 19.27,37.1 29.04,76.2 29.04,116.21 0,77.4 -26.18,139.88 -77.83,185.72 -50.57,44.85 -119.31,67.6 -204.31,67.6 H 935.715 V 994.68 h 226.615 v 335.31 l 84.12,-335.31 h 240.66 l -138.84,345.36 c 26.65,18.59 47.91,43.01 63.42,72.87"
         style="fill:#ffffff;fill-opacity:1;fill-rule:nonzero;stroke:none"
         id="path18" /><path
         d="m 1243,1515.72 c 0,-20.57 0,-69.91 -80.67,-83.3 v 178.31 c 32.53,-5.93 48.52,-15.5 55.97,-21.89 20.41,-17.56 24.7,-44.89 24.7,-73.12"
         style="fill:#231f20;fill-opacity:1;fill-rule:nonzero;stroke:none"
         id="path20" /><path
         d="m 1750,1281.78 h 146.27 v 212.48 H 1750 v 71.89 h 168.56 v 216.29 H 1523.38 V 994.68 h 396.27 v 216.83 H 1750 v 70.27"
         style="fill:#ffffff;fill-opacity:1;fill-rule:nonzero;stroke:none"
         id="path22" /><path
         d="m 2626.13,1782.44 -64.5,-313.1 -62.16,313.1 h -194.44 l -61.83,-319.03 -68.16,319.03 h -222.47 l 188.82,-787.76 h 196.13 l 64.91,298.31 63.47,-298.31 h 198.42 l 188.82,787.76 h -227.01"
         style="fill:#ffffff;fill-opacity:1;fill-rule:nonzero;stroke:none"
         id="path24" /><path
         d="m 2601.45,912.648 c -2.35,-22.347 -9.89,-44.378 -14.6,-66.296 -1.97,0 -3.93,0 -5.9,0 1.78,16.027 -5.07,137.578 10.8,135.898 -8.26,0.941 10.27,-63.871 9.7,-69.602 z m -173,-23 c -0.79,3.973 -3.75,24.774 0.5,26.891 1.46,-12.527 2.93,-25.07 4.4,-37.59 -3.21,2.852 -4.84,6.422 -4.9,10.699 z m -97.9,-11.699 c -5.69,-12.648 -11.02,-48.738 -36.84,-31.597 -10.41,6.898 -5.42,49.757 -6.26,63.296 -0.73,11.731 -9.07,39.231 -3.15,48.774 13.95,22.508 21.64,-13.621 42.25,-5.871 4.98,-20.551 12.83,-54.153 4,-74.602 z m -166.5,75.102 c -2.96,-17.403 3.14,-82.063 -9,-92.199 -8.34,38.628 -9.03,78.527 -5.7,117.789 13.42,-5.032 17.49,-10.563 14.7,-25.59 z m -20.5,80.699 c 9.22,5.23 14.62,2.03 16.2,-9.6 -5.02,-1.75 -14.49,6.52 -16.2,9.6 z m -140.9,-113.801 c -0.69,-6.328 -0.15,-63.097 -3.3,-63.91 -5.51,18.391 -22.15,93.609 1.9,104.699 3.11,-13.5 3.57,-27.109 1.4,-40.789 z m -36.6,148.501 c -4.86,2.16 -3.33,4.86 -1,9 2.15,-3.06 2.48,-6.05 1,-9 z m -67.4,15.7 c -5.6,3.4 -6.2,4.8 -3.4,8.3 5.1,-3.1 5.8,-4.61 3.4,-8.3 z m -2.8,-160.611 c -2.86,-17.66 -15.83,-75.5 -29.9,-77.187 0,18.257 -6.73,37.339 -6.9,54.66 -0.22,24.039 7.96,39.047 24.9,61.636 15.5,-13.179 15.21,-19.226 11.9,-39.109 z m -165.3,-12.687 c -12.03,-4.961 -1.57,18.789 0.1,26.597 3.55,-0.711 -0.1,-25.277 -0.1,-26.597 z m -0.5,-58.114 c -0.44,1.442 -5.07,5.903 -3.2,8.711 5.92,-0.988 7,-3.89 3.2,-8.711 z m -5.5,16.211 c -4.07,4.43 -4.07,7.692 0,9.801 3.38,-1.738 3.38,-5.012 0,-9.801 z m -77.6,191.291 c -8.95,0 7.96,2.66 0,0 z m -194.4,-195.689 c -1.44,-43.871 -20.5,1.949 -14.47,21.418 3.8,12.261 7.31,12.422 14.87,19.98 -1.59,-14.308 0.07,-27.109 -0.4,-41.398 z m -589.8,18.898 c -1.027,-12.34 -0.98,-24.738 -1.598,-37.097 -14.636,2.07 -7.886,83.66 -5,96.789 8.102,-22.469 8.567,-35.852 6.598,-59.692 z m -125.801,32.102 c -5.23,-1.27 -6.668,2.25 -4.297,10.59 4.395,1.48 -1.75,-8.161 4.297,1.597 0,-4.058 0,-8.129 0,-12.187 z M 610.953,871.941 C 610.27,859 592.008,826.699 575.051,847.84 c 5.203,-7.828 0.59,30.48 0.199,25.109 0.652,9.031 -0.082,25.492 -1.699,25.903 3.152,6.168 21.484,4.046 28.898,12.289 15.25,-47.129 5.805,-6.93 1.5,-22.692 2.367,0 4.735,0 7.102,0 -0.035,-5.5 -0.071,-11 -0.098,-16.508 z M 2706.95,846.352 c -5.5,35.539 7.05,85.097 7.9,121.699 1.19,51.769 -14.65,60.439 -62.3,72.189 60.18,77.61 -79.46,111.19 -66.3,24.31 -6.42,1.14 -8.08,8.59 -15.2,8.99 -21.09,1.21 -25.31,-1.82 -31.75,16.96 -5.94,17.29 24.28,53.42 -12.16,73.25 -33.46,18.22 -58.11,-15.07 -52.99,-45 2.43,-14.22 20.75,-31.38 16.8,-43.8 -3.61,-0.69 -12.64,5.15 -12.73,5.11 -3.15,3.79 -6.95,4.65 -11.39,2.6 -7.68,0.22 -12.9,-3.92 -15.68,-12.42 -15.68,-8.24 -35.35,-18.38 -53.9,-19.29 0,30.8 -2.87,89.58 -49.45,73.99 -36.08,-12.07 -26.41,-56.92 -20.55,-85.29 -16.22,20.29 -25.61,30.68 -45.1,43.99 -13.8,9.43 -20.27,1.87 -22.16,18.96 -1.91,17.28 25.2,33.54 21.76,56.55 -3.24,21.75 -21.56,37.82 -44.6,38.8 -22.02,0.93 -40.51,-14.2 -45,-36.91 -3.15,-15.92 25.23,-55.68 20.3,-62.29 -3.34,-4.48 -27.47,-3.03 -33.8,-4.31 -23.15,-4.66 -37.21,-20.57 -58,-27.1 4.93,24.64 25.81,50.64 -5.6,68.8 -9.16,5.31 -26.08,6.62 -36.9,1.2 -10.87,-5.44 -15.33,-22.1 -18.1,-33.3 -1.89,-7.63 2.03,-29.82 0.1,-34.29 -6.53,-15.16 1.88,-7.41 -13.1,-15 -1.9,-0.97 -29.36,-5.21 -29.94,-5.09 -6.9,1.37 -24.56,11.19 -30.26,17.79 -11.91,13.79 -4.95,6.01 -9,26.8 -2.16,11.08 -2.82,23.94 -8.6,34.44 -12.19,22.19 -38.26,33.95 -61.05,15.46 -26.9,-21.84 -6.13,-54.66 -19.6,-76.1 -13.35,-21.25 -15.71,-5.04 -37.75,-0.8 -6.28,6.63 43.66,65.21 8.3,90.7 -20.16,14.52 -43.95,3.32 -55.1,-14.9 -20.31,-33.22 11.36,-53.35 -29.1,-55.76 -34.36,-2.04 -30.38,13.26 -54.14,33.58 -29.54,25.28 -59.44,7.7 -72.56,-26.22 -2.77,-7.18 2.49,-13.49 -1.45,-21.11 -6.57,-12.7 -15.09,-11.75 -23.58,-21.73 -23.56,-27.72 -15.6,-83.861 -19.45,-120.958 -2.61,-25.161 -14.44,-59.602 -7.52,-84.5 -12.7,0 -25.4,0 -38.1,0 -3.44,18.558 -2.88,50.769 0.3,75.187 3.66,28.18 25.86,71.621 19.6,95.511 6.34,-9.41 11.64,-11.39 15.9,-5.91 -24.9,30.08 -4.61,49.33 -8.6,86.01 -3.46,31.77 -16.9,44.79 -29.6,70.19 -3.09,-9.26 -12.53,6.18 -23.2,1.81 -1.03,3.09 3.33,0.26 0.5,3.8 -16.47,-16.47 -35.02,-26.71 -48.35,-46.25 -9.65,-14.15 -14.57,-40.02 -12.05,-45.05 -1.25,-13.11 -2.81,-25.41 -14.6,-31.31 9.03,-14.77 7.82,-17.42 -1.4,-33.89 -9.54,6.35 -29.2,18.58 -35.9,26.6 -18.1,21.66 -4.27,30.18 0.6,55.99 4.22,22.39 4.34,15.83 1,31.3 -1.5,6.95 -6.94,31.73 -12.1,22.71 -6.17,10.91 -10.3,-3.75 -4.5,12.5 -3.53,1.25 -5.5,-1.53 -5.9,-8.3 -9.27,30.14 -66.36,-25.34 -54.1,-41.7 2.73,-12.75 12.72,-42.72 8.4,-51.91 -2.31,-4.91 -13.53,-10.09 -18.9,-12.69 -9.74,-4.74 -33.94,-3.31 -25.5,-2.1 -7.24,1.94 -48.56,8.02 -40.7,5.4 0.16,0.33 -5.23,14.46 -5.3,18 -13.58,12.72 19.17,60.57 -2.7,70.2 2.03,0.28 3.93,0.91 5.7,1.9 -8.11,2.94 -20.8,13.78 -22.25,14.29 -4.96,1.76 -11.43,7.82 -17.85,6.06 -6.94,-1.91 -20.03,-22.85 -27.8,-17.85 7.24,-17.68 -7.13,-18.98 -8,-31.8 -0.58,-8.5 3.89,-16.76 3.4,-25.4 -0.67,-11.94 -12,-37.42 -7.4,-34.5 -12.39,-9.4 -31.92,-27.84 -42.8,-4.51 -6.55,14.07 10.31,24.95 11.6,30 3.93,15.45 -0.44,56.33 10.1,63.11 -9.94,-2.66 -16.19,15.95 -31.4,19.3 -29.42,6.48 -46.13,-17.13 -50.5,-44.3 2.67,-0.2 3.67,2.01 3,6.59 -0.93,-8.08 -9.25,-43.49 7.4,-37.1 -8.8,-24.2 2.19,-28.89 -27.31,-38.53 -38.33,-12.52 -35.21,9.16 -72.792,18.34 7.192,2.05 -13.32,7.53 -16.046,11.3 -13.215,18.25 12.457,28.75 4.55,41.1 13.7,-8.12 -1.308,41.42 -3.05,44.79 -7.106,13.74 -26.793,17.03 -32.75,29.11 -1.317,-5.52 -33.508,-7.3 -43.598,-20.71 -9.066,-12.02 -1.613,-69.27 4.195,-58.89 1.11,-9.17 2.242,-18.34 3.403,-27.5 2.64,-0.31 3.378,1.27 2.199,4.69 5.301,-11.65 -7.082,-23.77 -14.598,-23.09 -21.758,1.95 -16.953,56.51 -20.101,75.8 -3.118,0.03 -3.387,-1.96 -0.801,-6.01 -14.992,22.93 -28.953,25.93 -56.059,14.48 -8.101,-3.42 -26.297,-14.15 -25.043,-25.87 0.992,4.49 2.461,5.43 4.403,2.8 -16.536,-17.02 -35.563,-100.71 -71.102,-83 3.52,24.23 0.168,13 -13.598,26.4 -5.586,5.43 -25.277,14.72 -19.101,18.09 -4.485,5.43 -10.192,-6.88 -13.203,2.9 6.429,3.06 24.34,40.32 27.8,50 5.555,15.55 -8.625,53.87 -11.699,42.61 -6.316,16.29 -27.523,18.31 -44.789,10.81 -13.961,-6.07 -24.203,-20.36 -28.558,-39.72 -7.5,-33.29 9.484,-35.39 -11.801,-58.44 -4.199,-4.55 -26.09,-38.09 -27.653,-31.86 -2.773,-9.03 -5.57,-18.06 -8.398,-27.1 -11.461,14.34 -34.145,29.73 -45.199,33.91 0.609,3.11 2.176,2.95 4.703,-0.5 -2.961,4.31 -6.961,7.4 -12.004,9.3 10.641,13.68 22.66,88.21 16.801,85.7 11.32,20.89 -36.649,29.9 -52,24.6 -29.446,-10.19 -34.672,-36.61 -28.613,-57.43 6.648,-22.83 13.847,-26.54 2.812,-48.48 -7.324,-14.56 -29.352,-19.56 -39.387,-39.92 -14.609,-29.63 -1.383,-64.541 3.711,-92.861 3.16,-17.579 7.059,-90.418 -3.422,-103.61 -12.492,-15.719 -85.449,-5.097 -108.191,-5.097 -32.508,0 -65.012,0 -97.516,0 -15.058,0 -54.515,7.66 -67.593,0 -13.649,-8 -8.704,-19.551 -8.704,-41.313 0,-111.32 0,-222.629 0,-333.949 0,-58 0,-116.008 0,-174.031 0,-19.149 -10.98,-80.688 0,-96.727 6.868,-10.023 34.622,-4.992 49.766,-4.992 142.594,0 285.184,0 427.774,0 490.542,0 981.092,0 1471.632,0 218.6,0 437.2,0 655.8,0 74.22,0 148.44,0 222.66,0 33.13,0 89.26,-11.121 120.87,0 3.95,1.398 10.75,-1.66 13.2,1 8.63,9.351 0,68.66 0,80.769 0,119.352 0,238.68 0,358.032 0,51.488 0,102.98 0,154.468 0,9.621 5.73,50.532 -1.01,56.743 -12.95,11.949 -95.46,0 -112.39,0 -63.92,0 -127.86,0 -191.79,0 -31.24,0 -62.48,0 -93.71,0"
         style="fill:#231f20;fill-opacity:1;fill-rule:nonzero;stroke:none"
         id="path26" /></g></g></svg>
