<svg id="svg" xmlns="http://www.w3.org/2000/svg" xmlns:xlink="http://www.w3.org/1999/xlink" width="400" height="400" viewBox="0, 0, 400,400"><g id="svgg"><path id="path0" d="M125.273 118.000 C 125.568 120.200,125.672 122.000,125.504 122.000 C 125.336 122.000,122.848 120.911,119.974 119.579 C 115.133 117.337,112.000 117.109,112.000 119.000 C 112.000 119.432,112.675 120.045,113.500 120.362 C 114.325 120.678,115.000 121.815,115.000 122.888 C 115.000 124.728,114.449 124.807,105.397 124.267 C 93.796 123.575,91.589 127.216,102.250 129.459 C 105.667 130.178,105.873 132.000,102.538 132.000 C 94.079 132.000,85.735 137.652,83.909 144.617 C 83.315 146.881,81.092 151.294,78.967 154.424 C 74.702 160.709,73.517 165.542,73.507 176.700 C 73.498 186.013,74.679 187.236,79.111 182.504 C 89.323 171.603,100.844 172.281,103.992 183.969 C 106.208 192.200,102.719 199.697,90.511 212.936 C 79.627 224.739,77.262 230.584,84.250 228.410 C 86.824 227.609,86.449 230.313,83.500 233.818 C 79.605 238.447,80.109 240.398,85.000 239.616 C 89.828 238.844,89.915 239.395,85.735 244.286 C 83.081 247.392,81.581 248.215,77.385 248.866 C 67.346 250.422,61.452 256.812,60.254 267.438 L 59.764 271.784 64.132 272.565 C 72.326 274.030,156.117 273.311,157.666 271.763 C 158.417 271.012,160.166 266.256,161.553 261.195 C 166.272 243.973,172.427 233.362,183.656 223.087 C 192.616 214.888,192.919 214.236,192.983 203.000 C 193.012 197.775,193.665 189.000,194.433 183.500 C 195.201 178.000,196.151 169.450,196.545 164.500 C 198.940 134.367,207.813 156.030,209.448 196.000 C 210.363 218.367,210.373 218.414,215.066 220.530 C 228.010 226.367,241.000 249.930,241.000 267.574 C 241.000 273.272,240.882 273.258,291.273 273.599 L 337.139 273.911 338.570 270.487 C 343.318 259.124,337.401 249.217,322.780 244.045 C 313.103 240.622,312.000 240.114,312.000 239.085 C 312.000 238.558,313.462 237.986,315.250 237.813 C 319.702 237.384,320.031 234.362,316.040 230.538 C 312.294 226.950,312.250 226.219,315.750 225.816 C 320.667 225.251,318.132 220.622,305.887 207.802 C 294.543 195.926,292.804 183.019,301.615 176.088 C 305.925 172.698,308.413 173.407,315.569 180.064 C 326.182 189.937,330.175 186.920,328.252 170.483 C 326.862 158.604,322.762 151.027,315.750 147.379 C 313.458 146.187,313.000 145.293,313.000 142.013 C 313.000 136.111,308.965 133.269,296.750 130.570 C 293.042 129.750,293.289 128.709,297.689 126.611 C 302.938 124.108,300.318 122.917,291.250 123.682 C 283.912 124.301,282.382 123.587,285.500 121.000 C 289.529 117.656,282.943 116.683,278.727 120.000 C 274.986 122.942,274.000 122.497,274.000 117.863 L 274.000 113.726 267.750 114.240 C 253.160 115.439,240.132 124.090,240.035 132.643 C 239.986 137.015,238.204 137.345,228.691 134.741 C 216.540 131.416,188.763 131.467,174.851 134.839 C 163.898 137.494,161.659 137.043,160.645 131.975 C 158.898 123.240,142.730 114.000,129.192 114.000 L 124.737 114.000 125.273 118.000 M167.020 188.830 C 187.173 199.599,180.313 231.024,157.815 230.994 C 150.471 230.985,145.833 229.108,140.871 224.137 C 123.018 206.255,144.740 176.926,167.020 188.830 M253.744 189.381 C 264.750 194.983,268.510 205.215,263.997 217.278 C 257.984 233.351,234.718 236.750,225.550 222.895 C 212.127 202.613,232.399 178.516,253.744 189.381 M152.030 192.113 C 137.712 197.827,135.573 215.977,148.336 223.457 C 162.242 231.606,178.678 217.478,172.933 202.315 C 169.882 194.263,159.428 189.160,152.030 192.113 M235.594 194.266 C 222.516 201.745,223.528 217.708,237.515 224.551 C 244.132 227.789,247.845 227.401,253.302 222.902 C 269.440 209.600,253.593 183.974,235.594 194.266 M158.418 197.607 C 160.719 198.490,160.356 201.317,157.610 203.897 C 156.296 205.131,154.665 208.126,153.985 210.552 C 152.033 217.524,148.585 218.774,146.135 213.398 C 142.165 204.684,150.140 194.430,158.418 197.607 M245.822 199.770 C 246.013 201.116,245.098 203.284,243.572 205.097 C 242.157 206.778,240.743 209.357,240.431 210.827 C 239.583 214.807,238.151 218.000,237.213 218.000 C 233.531 218.000,230.819 209.840,232.403 203.528 C 233.824 197.869,245.104 194.709,245.822 199.770 M191.500 246.569 C 178.713 253.206,176.150 267.834,187.000 272.246 C 192.807 274.608,215.178 273.203,218.224 270.286 C 230.590 258.438,207.726 238.147,191.500 246.569 M210.429 252.571 C 212.641 254.784,212.392 255.901,209.435 257.025 C 203.081 259.441,192.000 257.463,192.000 253.913 C 192.000 250.775,207.504 249.647,210.429 252.571 M91.674 253.649 C 95.643 255.533,97.892 258.513,98.901 263.227 C 100.471 270.563,96.527 272.702,92.867 266.500 C 90.287 262.127,88.306 262.039,87.215 266.250 C 85.968 271.062,82.130 270.805,79.750 265.750 C 77.552 261.082,76.993 261.082,74.498 265.753 C 70.835 272.609,65.579 269.687,67.863 262.064 C 70.454 253.416,82.334 249.218,91.674 253.649 M325.016 254.852 C 329.510 257.240,333.000 262.397,333.000 266.648 C 333.000 271.180,329.296 271.386,326.797 266.994 C 324.588 263.112,323.465 263.218,321.433 267.500 C 319.184 272.240,314.000 271.837,314.000 266.922 C 314.000 262.941,311.141 262.646,308.927 266.399 C 306.081 271.222,301.000 271.702,301.000 267.148 C 301.000 257.012,315.301 249.689,325.016 254.852 " stroke="none" fill="#000000" fill-rule="evenodd"></path></g></svg>