<?xml version="1.0" ?>
<svg xmlns="http://www.w3.org/2000/svg" viewBox="0 0 512 512" width="512" height="512">
    <g id="outline">
        <path d="M464,80a32.046,32.046,0,1,0-17.115-4.982l-21.009,77.03c-.623-.025-1.247-.048-1.876-.048a48.082,48.082,0,0,0-9.625.97L394.032,78.38a31.987,31.987,0,1,0-16.312,1l21.664,79.434A48.017,48.017,0,0,0,376,200v.367a126.641,126.641,0,0,1-13.3,56.349L337.68,306.752l-9.433-29.871A155.8,155.8,0,0,0,46.086,243.64a142.294,142.294,0,0,0-15.5,108.805l1.46,5.548A131.168,131.168,0,0,0,72.116,423a100.672,100.672,0,0,0-55.469,53.845A8,8,0,0,0,24,488H386.871a22,22,0,0,0,17.179-35.743l-8.743-10.93a190.636,190.636,0,0,0,68.957-127.418l5.395-51.253A427.727,427.727,0,0,0,472,218.061V200a48.068,48.068,0,0,0-30.437-44.658l20.564-75.4C462.747,79.977,463.371,80,464,80ZM368,48a16,16,0,1,1,16,16A16.019,16.019,0,0,1,368,48ZM47.515,353.921l-1.46-5.548a126.2,126.2,0,0,1,13.751-96.5,139.881,139.881,0,0,1,226.009-19.1A36.751,36.751,0,0,1,256,248a8,8,0,0,0,0,16,52.719,52.719,0,0,0,39.805-18.093A139.853,139.853,0,0,1,312.99,281.7l.469,1.486A46.3,46.3,0,0,1,281.373,296H280a8,8,0,0,0,0,16h1.373a62.156,62.156,0,0,0,37.3-12.306l8.5,26.906-2.415,3.382a273.481,273.481,0,0,1-79,74.006l7.73-28.344a117.54,117.54,0,0,0-5.972-78.449A83.429,83.429,0,0,0,101.852,284.8l-2.023,3.034a65.565,65.565,0,0,0-4.081,65.55A52.079,52.079,0,0,0,193.7,321.532l-1.808-10.847a8,8,0,1,0-15.782,2.63l1.808,10.847a36.079,36.079,0,0,1-67.858,22.067,49.529,49.529,0,0,1,3.083-49.519l2.023-3.035a67.43,67.43,0,0,1,117.722,10.018,101.5,101.5,0,0,1,5.157,67.741l-13.093,48.009A115.475,115.475,0,0,1,47.515,353.921ZM456,200v18.061a411.569,411.569,0,0,1-2.253,42.92l-5.4,51.253a174.54,174.54,0,0,1-68.644,120.985l-.509.382a8,8,0,0,0-1.446,11.4l13.8,17.254A6,6,0,0,1,386.871,472H37.157a84.643,84.643,0,0,1,50.416-37.236,131.408,131.408,0,0,0,160.852-13.7,289.523,289.523,0,0,0,89.347-81.781s5.031-7.087,5.127-7.25c.059-.1,34.109-68.161,34.109-68.161A142.712,142.712,0,0,0,392,200.367V200a32,32,0,0,1,64,0Zm8-168a16,16,0,1,1-16,16A16.019,16.019,0,0,1,464,32Z" />
        <circle cx="384" cy="48" r="8" />
        <circle cx="464" cy="48" r="8" />
        <path d="M408,320a8,8,0,0,0-8,8v8a8,8,0,0,0,16,0v-8A8,8,0,0,0,408,320Z" />
        <path d="M376,336a8,8,0,0,0-8,8v8a8,8,0,0,0,16,0v-8A8,8,0,0,0,376,336Z" />
        <path d="M400,360a8,8,0,0,0-8,8v8a8,8,0,0,0,16,0v-8A8,8,0,0,0,400,360Z" />
        <path d="M344,440H328a8,8,0,0,0,0,16h16a8,8,0,0,0,0-16Z" />
        <path d="M296,440H256a8,8,0,0,0,0,16h40a8,8,0,0,0,0-16Z" />
        <path d="M411.578,208.845a8,8,0,0,0-7.156,14.31,43.989,43.989,0,0,0,39.156,0,8,8,0,1,0-7.156-14.31A27.917,27.917,0,0,1,411.578,208.845Z" />
    </g>
</svg>
